<svg width="1314" height="573" viewBox="0 0 1314 573" fill="none" xmlns="http://www.w3.org/2000/svg">
<path d="M99.022 89.5358C99.022 89.5358 180.132 55.3786 226.094 58.4436C272.057 61.5085 277.802 60.1567 310.922 71.6473C344.042 83.1379 388.315 116.596 388.315 116.596L352.829 178.757C352.829 178.757 335.255 164.248 306.867 157.465C278.478 150.683 255.835 162.535 255.835 162.535C255.835 162.535 228.122 130.114 193.312 109.837C158.503 89.5591 99.022 89.5358 99.022 89.5358Z" fill="#2E8BC0"/>
<path d="M150.392 41.5689C148.702 38.8653 174.824 27.1122 208.859 22.3053C237.708 18.2308 272.179 20.2452 292.335 23.9951C336.269 32.169 366.01 64.8881 366.01 64.8881C366.01 64.8881 395.75 99.0219 395.75 101.726C395.75 104.429 356.209 54.7493 284.223 36.4996C212.238 18.2498 152.082 44.2726 150.392 41.5689Z" fill="#808080"/>
<path d="M396.1 20.6782C396.1 20.6782 452.85 87.9467 463.603 132.738C474.357 177.53 477.357 182.613 476.244 217.652C475.132 252.691 456.367 304.915 456.367 304.915L386.461 289.538C386.461 289.538 395.082 268.442 393.108 239.322C391.134 210.201 373.08 192.111 373.08 192.111C373.08 192.111 395.784 156.005 404.782 116.738C413.781 77.4704 396.1 20.6782 396.1 20.6782Z" fill="#2E8BC0"/>
<path d="M457.182 55.4439C459.26 53.026 478.255 74.4665 492.974 105.528C505.45 131.857 513.786 165.365 516.205 185.724C521.478 230.1 499.093 268.231 499.093 268.231C499.093 268.231 475.357 306.783 472.776 307.587C470.195 308.392 505.855 255.857 501.853 181.702C497.851 107.547 455.104 57.8618 457.182 55.4439Z" fill="#808080"/>
<path d="M551.803 281.935C551.803 281.935 505.945 357.053 466.857 381.425C427.768 405.798 423.896 410.253 390.305 420.283C356.714 430.314 301.236 429.036 301.236 429.036L293.705 357.857C293.705 357.857 316.445 359.36 343.445 348.274C370.445 337.188 381.893 314.338 381.893 314.338C381.893 314.338 423.328 324.452 463.425 320.564C503.522 316.676 551.803 281.935 551.803 281.935Z" fill="#2E8BC0"/>
<path d="M538.149 350.879C541.1 352.085 526.771 376.888 501.962 400.678C480.933 420.843 451.783 439.353 433.236 448.089C392.808 467.131 349.553 457.961 349.553 457.961C349.553 457.961 305.472 447.642 303.892 445.448C302.312 443.254 363.431 460.46 432.51 433.202C501.59 405.944 535.198 349.672 538.149 350.879Z" fill="#808080"/>
<path d="M344.116 516.195C344.116 516.195 258.134 497.42 222.32 468.449C186.506 439.478 181.03 437.275 160.568 408.81C140.105 380.345 123.173 327.499 123.173 327.499L187.978 297.108C187.978 297.108 193.992 319.09 213.297 340.981C232.602 362.872 257.939 366.22 257.939 366.22C257.939 366.22 261.929 408.684 278.714 445.306C295.499 481.928 344.116 516.195 344.116 516.195Z" fill="#2E8BC0"/>
<path d="M274.498 525.835C274.322 529.018 246.198 523.586 215.603 507.92C189.671 494.64 162.647 473.145 148.327 458.473C117.113 426.493 111.637 382.618 111.637 382.618C111.637 382.618 106.975 337.586 108.532 335.375C110.089 333.165 113.812 396.55 162.159 452.92C210.505 509.289 274.673 522.651 274.498 525.835Z" fill="#808080"/>
<path d="M65.7356 389.758C65.7356 389.758 59.6774 301.958 77.4576 259.463C95.2378 216.968 95.8188 211.095 117.413 183.478C139.007 155.862 184.997 124.806 184.997 124.806L232.321 178.505C232.321 178.505 212.904 190.435 197.296 215.099C181.688 239.763 185.571 265.024 185.571 265.024C185.571 265.024 145.925 280.748 115.47 307.118C85.0145 333.488 65.7356 389.758 65.7356 389.758Z" fill="#2E8BC0"/>
<path d="M36.9833 325.625C33.8782 326.349 31.2152 297.828 37.6858 264.071C43.1705 235.456 56.2365 203.494 66.3099 185.638C88.2674 146.716 128.853 129.17 128.853 129.17C128.853 129.17 170.777 112.082 173.335 112.957C175.893 113.833 116.087 135.16 75.5149 197.36C34.9428 259.56 40.0884 324.902 36.9833 325.625Z" fill="#808080"/>
<path fill-rule="evenodd" clip-rule="evenodd" d="M289.631 349.449C336.106 349.449 373.782 311.773 373.782 265.298C373.782 218.822 336.106 181.146 289.631 181.146C243.155 181.146 205.479 218.822 205.479 265.298C205.479 311.773 243.155 349.449 289.631 349.449ZM289.631 323.089C321.548 323.089 347.422 297.215 347.422 265.298C347.422 233.381 321.548 207.507 289.631 207.507C257.714 207.507 231.84 233.381 231.84 265.298C231.84 297.215 257.714 323.089 289.631 323.089Z" fill="#808080"/>
<path d="M655.08 255.28L618.76 151.6C618.227 150 618.387 148.56 619.24 147.28C620.2 145.893 621.533 145.2 623.24 145.2C625.267 145.2 627.133 145.84 628.84 147.12C630.547 148.293 631.72 149.84 632.36 151.76L664.68 249.2C664.68 249.307 664.733 249.36 664.84 249.36C665.053 249.36 665.16 249.307 665.16 249.2L697.48 151.44C698.12 149.52 699.24 148.027 700.84 146.96C702.44 145.787 704.253 145.2 706.28 145.2C707.88 145.2 709.16 145.893 710.12 147.28C711.08 148.56 711.293 149.947 710.76 151.44L674.28 255.28C673.533 257.307 672.253 258.96 670.44 260.24C668.733 261.413 666.813 262 664.68 262C662.547 262 660.573 261.413 658.76 260.24C657.053 258.96 655.827 257.307 655.08 255.28ZM745.268 260.08C743.988 261.36 742.388 262 740.468 262C738.548 262 736.894 261.36 735.508 260.08C734.228 258.693 733.588 257.04 733.588 255.12V152.08C733.588 150.16 734.228 148.56 735.508 147.28C736.894 145.893 738.548 145.2 740.468 145.2C742.388 145.2 743.988 145.893 745.268 147.28C746.654 148.56 747.348 150.16 747.348 152.08V255.12C747.348 257.04 746.654 258.693 745.268 260.08ZM790.293 260.08C789.119 261.36 787.626 262 785.812 262C783.999 262 782.453 261.36 781.173 260.08C779.999 258.8 779.413 257.307 779.413 255.6V151.6C779.413 149.893 779.999 148.4 781.173 147.12C782.453 145.84 783.999 145.2 785.812 145.2C787.626 145.2 789.119 145.84 790.293 147.12C791.573 148.4 792.213 149.893 792.213 151.6V197.04C792.213 197.147 792.266 197.2 792.373 197.2H792.693L836.053 150.8C839.573 147.067 843.893 145.2 849.013 145.2C850.506 145.2 851.519 145.893 852.053 147.28C852.693 148.56 852.479 149.733 851.413 150.8L804.693 200.24C804.053 200.88 803.999 201.52 804.533 202.16L853.173 256.24C854.133 257.307 854.293 258.533 853.653 259.92C853.013 261.307 851.999 262 850.613 262C845.386 262 841.119 260.08 837.813 256.24L792.693 205.2C792.586 205.093 792.479 205.04 792.373 205.04C792.266 205.04 792.213 205.147 792.213 205.36V255.6C792.213 257.307 791.573 258.8 790.293 260.08ZM927.168 260.08C925.994 261.36 924.501 262 922.688 262C920.874 262 919.328 261.36 918.048 260.08C916.874 258.8 916.288 257.307 916.288 255.6V154.32C916.288 151.867 917.194 149.733 919.008 147.92C920.821 146.107 922.954 145.2 925.408 145.2H977.568C979.061 145.2 980.341 145.733 981.408 146.8C982.474 147.867 983.008 149.093 983.008 150.48C983.008 151.867 982.474 153.147 981.408 154.32C980.341 155.387 979.061 155.92 977.568 155.92H930.528C929.568 155.92 929.088 156.347 929.088 157.2V194.32C929.088 195.173 929.568 195.6 930.528 195.6H974.688C976.181 195.6 977.408 196.133 978.368 197.2C979.328 198.16 979.808 199.333 979.808 200.72C979.808 202.107 979.328 203.333 978.368 204.4C977.408 205.36 976.181 205.84 974.688 205.84H930.528C929.568 205.84 929.088 206.32 929.088 207.28V255.6C929.088 257.307 928.448 258.8 927.168 260.08ZM1077.65 166.8C1071.25 158.48 1061.97 154.32 1049.81 154.32C1037.65 154.32 1028.31 158.48 1021.81 166.8C1015.41 175.12 1012.21 187.387 1012.21 203.6C1012.21 219.813 1015.41 232.08 1021.81 240.4C1028.31 248.72 1037.65 252.88 1049.81 252.88C1061.97 252.88 1071.25 248.72 1077.65 240.4C1084.15 232.08 1087.41 219.813 1087.41 203.6C1087.41 187.387 1084.15 175.12 1077.65 166.8ZM1086.93 247.92C1077.97 258.373 1065.59 263.6 1049.81 263.6C1034.02 263.6 1021.59 258.373 1012.53 247.92C1003.57 237.36 999.088 222.587 999.088 203.6C999.088 184.613 1003.57 169.893 1012.53 159.44C1021.59 148.88 1034.02 143.6 1049.81 143.6C1065.59 143.6 1077.97 148.88 1086.93 159.44C1095.99 169.893 1100.53 184.613 1100.53 203.6C1100.53 222.587 1095.99 237.36 1086.93 247.92ZM1133.31 156.88V199.44C1133.31 200.4 1133.79 200.88 1134.75 200.88H1146.11C1158.8 200.88 1168.13 198.853 1174.11 194.8C1180.08 190.64 1183.07 184.507 1183.07 176.4C1183.07 161.467 1171.81 154 1149.31 154C1144.51 154 1139.65 154.427 1134.75 155.28C1133.79 155.493 1133.31 156.027 1133.31 156.88ZM1131.39 260.08C1130.21 261.36 1128.72 262 1126.91 262C1125.09 262 1123.55 261.36 1122.27 260.08C1121.09 258.8 1120.51 257.307 1120.51 255.6V155.12C1120.51 152.453 1121.36 150.16 1123.07 148.24C1124.77 146.213 1126.91 145.04 1129.47 144.72C1135.76 143.973 1142.75 143.6 1150.43 143.6C1165.36 143.6 1176.61 146.373 1184.19 151.92C1191.87 157.36 1195.71 165.147 1195.71 175.28C1195.71 183.387 1193.52 190.16 1189.15 195.6C1184.88 200.933 1178.75 204.613 1170.75 206.64C1170.64 206.64 1170.59 206.747 1170.59 206.96C1170.59 207.067 1170.64 207.12 1170.75 207.12C1175.33 209.787 1180.03 216.72 1184.83 227.92L1196.35 255.92C1196.99 257.307 1196.83 258.693 1195.87 260.08C1195.01 261.36 1193.79 262 1192.19 262C1190.16 262 1188.29 261.413 1186.59 260.24C1184.99 259.067 1183.81 257.573 1183.07 255.76L1171.87 228.24C1168.67 220.56 1165.63 215.813 1162.75 214C1159.97 212.08 1154.43 211.12 1146.11 211.12H1134.75C1133.79 211.12 1133.31 211.547 1133.31 212.4V255.6C1133.31 257.307 1132.67 258.8 1131.39 260.08ZM637.16 429.24C635.987 430.413 634.547 431 632.84 431C631.133 431 629.64 430.413 628.36 429.24C627.187 428.067 626.6 426.573 626.6 424.76V320.76C626.6 318.947 627.24 317.4 628.52 316.12C629.8 314.84 631.347 314.2 633.16 314.2C637.533 314.2 640.84 316.12 643.08 319.96L696.2 410.04C696.2 410.147 696.307 410.2 696.52 410.2C696.627 410.2 696.68 410.147 696.68 410.04V320.44C696.68 318.627 697.267 317.133 698.44 315.96C699.72 314.787 701.213 314.2 702.92 314.2C704.627 314.2 706.067 314.787 707.24 315.96C708.52 317.133 709.16 318.627 709.16 320.44V424.44C709.16 426.253 708.52 427.8 707.24 429.08C705.96 430.36 704.413 431 702.6 431C698.227 431 694.92 429.08 692.68 425.24L639.56 335.16C639.56 335.053 639.453 335 639.24 335C639.133 335 639.08 335.053 639.08 335.16V424.76C639.08 426.573 638.44 428.067 637.16 429.24ZM807.648 335.8C801.248 327.48 791.968 323.32 779.808 323.32C767.648 323.32 758.314 327.48 751.808 335.8C745.408 344.12 742.208 356.387 742.208 372.6C742.208 388.813 745.408 401.08 751.808 409.4C758.314 417.72 767.648 421.88 779.808 421.88C791.968 421.88 801.248 417.72 807.648 409.4C814.154 401.08 817.408 388.813 817.408 372.6C817.408 356.387 814.154 344.12 807.648 335.8ZM816.928 416.92C807.968 427.373 795.594 432.6 779.808 432.6C764.021 432.6 751.594 427.373 742.528 416.92C733.568 406.36 729.088 391.587 729.088 372.6C729.088 353.613 733.568 338.893 742.528 328.44C751.594 317.88 764.021 312.6 779.808 312.6C795.594 312.6 807.968 317.88 816.928 328.44C825.994 338.893 830.528 353.613 830.528 372.6C830.528 391.587 825.994 406.36 816.928 416.92ZM863.306 325.88V368.44C863.306 369.4 863.786 369.88 864.746 369.88H876.106C888.8 369.88 898.133 367.853 904.106 363.8C910.08 359.64 913.066 353.507 913.066 345.4C913.066 330.467 901.813 323 879.306 323C874.506 323 869.653 323.427 864.746 324.28C863.786 324.493 863.306 325.027 863.306 325.88ZM861.386 429.08C860.213 430.36 858.72 431 856.906 431C855.093 431 853.546 430.36 852.266 429.08C851.093 427.8 850.506 426.307 850.506 424.6V324.12C850.506 321.453 851.36 319.16 853.066 317.24C854.773 315.213 856.906 314.04 859.466 313.72C865.76 312.973 872.746 312.6 880.426 312.6C895.36 312.6 906.613 315.373 914.186 320.92C921.866 326.36 925.706 334.147 925.706 344.28C925.706 352.387 923.52 359.16 919.146 364.6C914.88 369.933 908.746 373.613 900.746 375.64C900.64 375.64 900.586 375.747 900.586 375.96C900.586 376.067 900.64 376.12 900.746 376.12C905.333 378.787 910.026 385.72 914.826 396.92L926.346 424.92C926.986 426.307 926.826 427.693 925.866 429.08C925.013 430.36 923.786 431 922.186 431C920.16 431 918.293 430.413 916.586 429.24C914.986 428.067 913.813 426.573 913.066 424.76L901.866 397.24C898.666 389.56 895.626 384.813 892.746 383C889.973 381.08 884.426 380.12 876.106 380.12H864.746C863.786 380.12 863.306 380.547 863.306 381.4V424.6C863.306 426.307 862.666 427.8 861.386 429.08ZM957.938 429.24C956.764 430.413 955.324 431 953.618 431C951.911 431 950.471 430.413 949.298 429.24C948.124 427.96 947.538 426.467 947.538 424.76V320.76C947.538 318.947 948.124 317.4 949.298 316.12C950.578 314.84 952.124 314.2 953.938 314.2C958.311 314.2 961.564 316.12 963.698 319.96L998.738 384.44C998.738 384.547 998.844 384.6 999.058 384.6C999.164 384.6 999.218 384.547 999.218 384.44L1034.26 320.12C1036.28 316.173 1039.59 314.2 1044.18 314.2C1045.99 314.2 1047.54 314.893 1048.82 316.28C1050.2 317.56 1050.9 319.107 1050.9 320.92V424.6C1050.9 426.307 1050.26 427.8 1048.98 429.08C1047.8 430.36 1046.31 431 1044.5 431C1042.68 431 1041.14 430.36 1039.86 429.08C1038.68 427.8 1038.1 426.307 1038.1 424.6V335.8C1038.1 335.693 1038.04 335.64 1037.94 335.64C1037.83 335.64 1037.78 335.693 1037.78 335.8L1007.86 391C1005.94 394.52 1003 396.28 999.058 396.28C995.111 396.28 992.178 394.52 990.258 391L960.178 335.8C960.178 335.693 960.124 335.64 960.018 335.64C959.911 335.64 959.858 335.693 959.858 335.8V424.76C959.858 426.467 959.218 427.96 957.938 429.24ZM1094.64 429.08C1093.36 430.36 1091.76 431 1089.84 431C1087.92 431 1086.27 430.36 1084.88 429.08C1083.6 427.693 1082.96 426.04 1082.96 424.12V321.08C1082.96 319.16 1083.6 317.56 1084.88 316.28C1086.27 314.893 1087.92 314.2 1089.84 314.2C1091.76 314.2 1093.36 314.893 1094.64 316.28C1096.03 317.56 1096.72 319.16 1096.72 321.08V424.12C1096.72 426.04 1096.03 427.693 1094.64 429.08ZM1137.91 431C1135.45 431 1133.32 430.093 1131.51 428.28C1129.69 426.467 1128.79 424.333 1128.79 421.88V323.32C1128.79 320.867 1129.69 318.733 1131.51 316.92C1133.32 315.107 1135.45 314.2 1137.91 314.2H1191.67C1193.16 314.2 1194.44 314.733 1195.51 315.8C1196.57 316.867 1197.11 318.093 1197.11 319.48C1197.11 320.867 1196.57 322.147 1195.51 323.32C1194.44 324.387 1193.16 324.92 1191.67 324.92H1143.03C1142.07 324.92 1141.59 325.347 1141.59 326.2V361.72C1141.59 362.573 1142.07 363 1143.03 363H1188.79C1190.28 363 1191.51 363.533 1192.47 364.6C1193.43 365.56 1193.91 366.733 1193.91 368.12C1193.91 369.507 1193.43 370.733 1192.47 371.8C1191.51 372.76 1190.28 373.24 1188.79 373.24H1143.03C1142.07 373.24 1141.59 373.72 1141.59 374.68V419C1141.59 419.853 1142.07 420.28 1143.03 420.28H1191.67C1193.16 420.28 1194.44 420.867 1195.51 422.04C1196.57 423.107 1197.11 424.333 1197.11 425.72C1197.11 427.107 1196.57 428.333 1195.51 429.4C1194.44 430.467 1193.16 431 1191.67 431H1137.91ZM1250.25 376.12C1228.17 368.653 1217.13 356.973 1217.13 341.08C1217.13 332.12 1220.01 325.133 1225.77 320.12C1231.53 315.107 1239.58 312.6 1249.93 312.6C1259.53 312.6 1268.44 314.04 1276.65 316.92C1278.36 317.56 1279.74 318.68 1280.81 320.28C1281.88 321.773 1282.41 323.48 1282.41 325.4C1282.41 326.787 1281.82 327.853 1280.65 328.6C1279.48 329.24 1278.25 329.293 1276.97 328.76C1268.33 324.92 1259.64 323 1250.89 323C1244.49 323 1239.32 324.493 1235.37 327.48C1231.53 330.467 1229.61 335 1229.61 341.08C1229.61 351.533 1236.6 359.107 1250.57 363.8C1263.8 368.173 1273.08 373.187 1278.41 378.84C1283.74 384.493 1286.41 391.747 1286.41 400.6C1286.41 411.053 1283.26 419 1276.97 424.44C1270.68 429.88 1261.45 432.6 1249.29 432.6C1240.12 432.6 1231.85 430.947 1224.49 427.64C1220.76 425.933 1218.89 422.947 1218.89 418.68C1218.89 417.293 1219.48 416.28 1220.65 415.64C1221.82 415 1223 415 1224.17 415.64C1231.42 419.8 1239.48 421.88 1248.33 421.88C1265.18 421.88 1273.61 414.787 1273.61 400.6C1273.61 394.84 1271.8 390.04 1268.17 386.2C1264.54 382.36 1258.57 379 1250.25 376.12Z" fill="#808080"/>
</svg>
