<svg width="1488" height="573" viewBox="0 0 1488 573" fill="none" xmlns="http://www.w3.org/2000/svg">
<path d="M99.022 89.5358C99.022 89.5358 180.132 55.3786 226.094 58.4436C272.057 61.5085 277.802 60.1567 310.922 71.6473C344.042 83.1379 388.315 116.596 388.315 116.596L352.829 178.757C352.829 178.757 335.255 164.248 306.867 157.465C278.478 150.683 255.835 162.535 255.835 162.535C255.835 162.535 228.122 130.114 193.312 109.837C158.503 89.5591 99.022 89.5358 99.022 89.5358Z" fill="#2E8BC0"/>
<path d="M150.392 41.5689C148.702 38.8653 174.824 27.1122 208.859 22.3053C237.708 18.2308 272.179 20.2452 292.335 23.9951C336.269 32.169 366.01 64.8881 366.01 64.8881C366.01 64.8881 395.75 99.0219 395.75 101.726C395.75 104.429 356.209 54.7493 284.223 36.4996C212.238 18.2498 152.082 44.2726 150.392 41.5689Z" fill="#808080"/>
<path d="M396.1 20.6782C396.1 20.6782 452.85 87.9467 463.603 132.738C474.357 177.53 477.357 182.613 476.244 217.652C475.132 252.691 456.367 304.915 456.367 304.915L386.461 289.538C386.461 289.538 395.082 268.442 393.108 239.322C391.134 210.201 373.08 192.111 373.08 192.111C373.08 192.111 395.784 156.005 404.782 116.738C413.781 77.4704 396.1 20.6782 396.1 20.6782Z" fill="#2E8BC0"/>
<path d="M457.182 55.4439C459.26 53.026 478.255 74.4665 492.974 105.528C505.45 131.857 513.786 165.365 516.205 185.724C521.478 230.1 499.093 268.231 499.093 268.231C499.093 268.231 475.357 306.783 472.776 307.587C470.195 308.392 505.855 255.857 501.853 181.702C497.851 107.547 455.104 57.8618 457.182 55.4439Z" fill="#808080"/>
<path d="M551.803 281.935C551.803 281.935 505.945 357.053 466.857 381.425C427.768 405.798 423.896 410.253 390.305 420.283C356.714 430.314 301.236 429.036 301.236 429.036L293.705 357.857C293.705 357.857 316.445 359.36 343.445 348.274C370.445 337.188 381.893 314.338 381.893 314.338C381.893 314.338 423.328 324.452 463.425 320.564C503.522 316.676 551.803 281.935 551.803 281.935Z" fill="#2E8BC0"/>
<path d="M538.149 350.879C541.1 352.085 526.771 376.888 501.962 400.678C480.933 420.843 451.783 439.353 433.236 448.089C392.808 467.131 349.553 457.961 349.553 457.961C349.553 457.961 305.472 447.642 303.892 445.448C302.312 443.254 363.431 460.46 432.51 433.202C501.59 405.944 535.198 349.672 538.149 350.879Z" fill="#808080"/>
<path d="M344.116 516.195C344.116 516.195 258.134 497.42 222.32 468.449C186.506 439.478 181.03 437.275 160.568 408.81C140.105 380.345 123.173 327.499 123.173 327.499L187.978 297.108C187.978 297.108 193.992 319.09 213.297 340.981C232.602 362.872 257.939 366.22 257.939 366.22C257.939 366.22 261.929 408.684 278.714 445.306C295.499 481.928 344.116 516.195 344.116 516.195Z" fill="#2E8BC0"/>
<path d="M274.498 525.835C274.322 529.018 246.198 523.586 215.603 507.92C189.671 494.64 162.647 473.145 148.327 458.473C117.113 426.493 111.637 382.618 111.637 382.618C111.637 382.618 106.975 337.586 108.532 335.375C110.089 333.165 113.812 396.55 162.159 452.92C210.505 509.289 274.673 522.651 274.498 525.835Z" fill="#808080"/>
<path d="M65.7356 389.758C65.7356 389.758 59.6774 301.958 77.4576 259.463C95.2378 216.968 95.8188 211.095 117.413 183.478C139.007 155.862 184.997 124.806 184.997 124.806L232.321 178.505C232.321 178.505 212.904 190.435 197.296 215.099C181.688 239.763 185.571 265.024 185.571 265.024C185.571 265.024 145.925 280.748 115.47 307.118C85.0145 333.488 65.7356 389.758 65.7356 389.758Z" fill="#2E8BC0"/>
<path d="M36.9833 325.625C33.8782 326.349 31.2152 297.828 37.6858 264.071C43.1705 235.456 56.2365 203.494 66.3099 185.638C88.2674 146.716 128.853 129.17 128.853 129.17C128.853 129.17 170.777 112.082 173.335 112.957C175.893 113.833 116.087 135.16 75.5149 197.36C34.9428 259.56 40.0884 324.902 36.9833 325.625Z" fill="#808080"/>
<path fill-rule="evenodd" clip-rule="evenodd" d="M289.631 349.449C336.106 349.449 373.782 311.773 373.782 265.298C373.782 218.822 336.106 181.146 289.631 181.146C243.155 181.146 205.479 218.822 205.479 265.298C205.479 311.773 243.155 349.449 289.631 349.449ZM289.631 323.089C321.548 323.089 347.422 297.215 347.422 265.298C347.422 233.381 321.548 207.507 289.631 207.507C257.714 207.507 231.84 233.381 231.84 265.298C231.84 297.215 257.714 323.089 289.631 323.089Z" fill="#808080"/>
<path d="M724.2 291C727.267 291 729.933 292.133 732.2 294.4C734.467 296.667 735.6 299.333 735.6 302.4V425.6C735.6 428.667 734.467 431.333 732.2 433.6C729.933 435.867 727.267 437 724.2 437H707C703.933 437 701.267 435.867 699 433.6C696.733 431.333 695.6 428.667 695.6 425.6V378.8C695.6 377.6 695.067 377 694 377H661.4C660.2 377 659.6 377.6 659.6 378.8V425.6C659.6 428.667 658.467 431.333 656.2 433.6C653.933 435.867 651.267 437 648.2 437H631C627.933 437 625.267 435.867 623 433.6C620.733 431.333 619.6 428.667 619.6 425.6V302.4C619.6 299.333 620.733 296.667 623 294.4C625.267 292.133 627.933 291 631 291H648.2C651.267 291 653.933 292.133 656.2 294.4C658.467 296.667 659.6 299.333 659.6 302.4V345.2C659.6 346.4 660.2 347 661.4 347H694C695.067 347 695.6 346.4 695.6 345.2V302.4C695.6 299.333 696.733 296.667 699 294.4C701.267 292.133 703.933 291 707 291H724.2ZM857.717 405C860.784 405 863.451 406.133 865.717 408.4C867.984 410.667 869.117 413.333 869.117 416.4V425.6C869.117 428.667 867.984 431.333 865.717 433.6C863.451 435.867 860.784 437 857.717 437H776.517C773.451 437 770.784 435.867 768.517 433.6C766.251 431.333 765.117 428.667 765.117 425.6V416.4C765.117 408.933 768.117 402.867 774.117 398.2C796.117 381.4 810.451 369 817.117 361C823.784 352.867 827.117 344.867 827.117 337C827.117 327 821.451 322 810.117 322C802.117 322 791.717 324.267 778.917 328.8C776.251 329.733 773.784 329.467 771.517 328C769.251 326.4 768.117 324.267 768.117 321.6V308.4C768.117 304.933 769.117 301.867 771.117 299.2C773.117 296.4 775.717 294.6 778.917 293.8C791.984 290.6 804.384 289 816.117 289C832.784 289 845.584 292.933 854.517 300.8C863.584 308.533 868.117 319.267 868.117 333C868.117 343.933 864.651 354.333 857.717 364.2C850.917 374.067 837.451 387.467 817.317 404.4C817.184 404.533 817.117 404.667 817.117 404.8C817.117 404.933 817.184 405 817.317 405H857.717ZM1001.35 291C1004.42 291 1007.08 292.133 1009.35 294.4C1011.62 296.667 1012.75 299.333 1012.75 302.4V425.6C1012.75 428.667 1011.62 431.333 1009.35 433.6C1007.08 435.867 1004.42 437 1001.35 437H984.148C981.082 437 978.415 435.867 976.148 433.6C973.882 431.333 972.748 428.667 972.748 425.6V378.8C972.748 377.6 972.215 377 971.148 377H938.548C937.348 377 936.748 377.6 936.748 378.8V425.6C936.748 428.667 935.615 431.333 933.348 433.6C931.082 435.867 928.415 437 925.348 437H908.148C905.082 437 902.415 435.867 900.148 433.6C897.882 431.333 896.748 428.667 896.748 425.6V302.4C896.748 299.333 897.882 296.667 900.148 294.4C902.415 292.133 905.082 291 908.148 291H925.348C928.415 291 931.082 292.133 933.348 294.4C935.615 296.667 936.748 299.333 936.748 302.4V345.2C936.748 346.4 937.348 347 938.548 347H971.148C972.215 347 972.748 346.4 972.748 345.2V302.4C972.748 299.333 973.882 296.667 976.148 294.4C978.415 292.133 981.082 291 984.148 291H1001.35ZM1132.47 333C1135.27 333 1137.4 334.133 1138.87 336.4C1140.47 338.533 1140.87 340.933 1140.07 343.6L1094.67 470.4C1093.47 473.6 1091.47 476.133 1088.67 478C1085.87 480 1082.8 481 1079.47 481H1062.27C1059.47 481 1057.27 479.867 1055.67 477.6C1054.2 475.467 1054 473.133 1055.07 470.6L1068.27 438.6C1068.4 438.067 1068.47 437.533 1068.47 437C1068.47 436.467 1068.4 435.933 1068.27 435.4L1033.87 343.6C1032.8 341.067 1033.07 338.667 1034.67 336.4C1036.27 334.133 1038.47 333 1041.27 333H1060.47C1063.67 333 1066.53 334.067 1069.07 336.2C1071.73 338.333 1073.4 341 1074.07 344.2L1085.67 402.8C1085.67 402.933 1085.73 403 1085.87 403C1086 403 1086.07 402.933 1086.07 402.8L1101.07 344C1101.87 340.8 1103.6 338.2 1106.27 336.2C1108.93 334.067 1111.93 333 1115.27 333H1132.47ZM1216.19 396V374C1216.19 370.133 1214.46 366.667 1210.99 363.6C1207.66 360.533 1203.73 359 1199.19 359C1187.86 359 1182.19 367.667 1182.19 385C1182.19 393.667 1183.73 400.2 1186.79 404.6C1189.86 408.867 1193.99 411 1199.19 411C1203.73 411 1207.66 409.467 1210.99 406.4C1214.46 403.333 1216.19 399.867 1216.19 396ZM1241.79 287C1244.86 287 1247.53 288.133 1249.79 290.4C1252.06 292.667 1253.19 295.333 1253.19 298.4V425.6C1253.19 428.667 1252.06 431.333 1249.79 433.6C1247.53 435.867 1244.86 437 1241.79 437H1229.19C1225.99 437 1223.26 435.933 1220.99 433.8C1218.73 431.533 1217.53 428.8 1217.39 425.6V424C1217.39 423.867 1217.33 423.8 1217.19 423.8C1217.06 423.8 1216.93 423.867 1216.79 424C1208.66 434 1198.13 439 1185.19 439C1173.59 439 1163.99 434.267 1156.39 424.8C1148.93 415.333 1145.19 402.067 1145.19 385C1145.19 367.533 1148.79 354.2 1155.99 345C1163.19 335.667 1172.93 331 1185.19 331C1195.86 331 1205.66 334.933 1214.59 342.8C1214.73 342.933 1214.86 343 1214.99 343C1215.13 343 1215.19 342.933 1215.19 342.8V298.4C1215.19 295.333 1216.33 292.667 1218.59 290.4C1220.86 288.133 1223.53 287 1226.59 287H1241.79ZM1351.92 333.4C1354.99 333 1357.65 333.933 1359.92 336.2C1362.19 338.467 1363.32 341.2 1363.32 344.4V349.6C1363.32 352.667 1362.25 355.333 1360.12 357.6C1357.99 359.733 1355.32 361 1352.12 361.4C1341.85 362.733 1333.65 366.6 1327.52 373C1321.39 379.267 1318.32 386.933 1318.32 396V425.6C1318.32 428.667 1317.19 431.333 1314.92 433.6C1312.65 435.867 1309.99 437 1306.92 437H1290.72C1287.65 437 1284.99 435.867 1282.72 433.6C1280.45 431.333 1279.32 428.667 1279.32 425.6V344.4C1279.32 341.333 1280.45 338.667 1282.72 336.4C1284.99 334.133 1287.65 333 1290.72 333H1305.92C1308.99 333 1311.65 334.133 1313.92 336.4C1316.19 338.667 1317.32 341.333 1317.32 344.4V352.8C1317.32 352.933 1317.39 353 1317.52 353C1317.65 353 1317.79 352.933 1317.92 352.8C1326.32 341.733 1337.65 335.267 1351.92 333.4ZM1415.49 406.8C1418.02 410.933 1422.09 413 1427.69 413C1433.29 413 1437.35 410.933 1439.89 406.8C1442.42 402.533 1443.69 395.267 1443.69 385C1443.69 374.733 1442.42 367.533 1439.89 363.4C1437.35 359.133 1433.29 357 1427.69 357C1422.09 357 1418.02 359.133 1415.49 363.4C1412.95 367.533 1411.69 374.733 1411.69 385C1411.69 395.267 1412.95 402.533 1415.49 406.8ZM1387.89 345.4C1397.35 335.8 1410.62 331 1427.69 331C1444.75 331 1458.02 335.8 1467.49 345.4C1476.95 354.867 1481.69 368.067 1481.69 385C1481.69 401.933 1476.95 415.2 1467.49 424.8C1458.02 434.267 1444.75 439 1427.69 439C1410.62 439 1397.35 434.267 1387.89 424.8C1378.42 415.2 1373.69 401.933 1373.69 385C1373.69 368.067 1378.42 354.867 1387.89 345.4Z" fill="url(#paint0_linear)"/>
<path d="M732.2 294.4L735.028 291.572L735.028 291.572L732.2 294.4ZM699 433.6L701.828 430.772L701.828 430.772L699 433.6ZM656.2 433.6L659.028 436.428L659.028 436.428L656.2 433.6ZM623 433.6L620.172 436.428L620.172 436.428L623 433.6ZM623 294.4L620.172 291.572L620.172 291.572L623 294.4ZM656.2 294.4L659.028 291.572L659.028 291.572L656.2 294.4ZM699 294.4L696.172 291.572L696.172 291.572L699 294.4ZM724.2 295C726.153 295 727.817 295.674 729.372 297.228L735.028 291.572C732.049 288.593 728.38 287 724.2 287V295ZM729.372 297.228C730.926 298.783 731.6 300.447 731.6 302.4H739.6C739.6 298.22 738.007 294.551 735.028 291.572L729.372 297.228ZM731.6 302.4V425.6H739.6V302.4H731.6ZM731.6 425.6C731.6 427.553 730.926 429.217 729.372 430.772L735.028 436.428C738.007 433.449 739.6 429.78 739.6 425.6H731.6ZM729.372 430.772C727.817 432.326 726.153 433 724.2 433V441C728.38 441 732.049 439.407 735.028 436.428L729.372 430.772ZM724.2 433H707V441H724.2V433ZM707 433C705.047 433 703.383 432.326 701.828 430.772L696.172 436.428C699.151 439.407 702.82 441 707 441V433ZM701.828 430.772C700.274 429.217 699.6 427.553 699.6 425.6H691.6C691.6 429.78 693.193 433.449 696.172 436.428L701.828 430.772ZM699.6 425.6V378.8H691.6V425.6H699.6ZM699.6 378.8C699.6 377.692 699.364 376.114 698.19 374.793C696.936 373.382 695.28 373 694 373V381C693.787 381 692.931 380.918 692.21 380.107C691.569 379.386 691.6 378.708 691.6 378.8H699.6ZM694 373H661.4V381H694V373ZM661.4 373C660.183 373 658.536 373.307 657.222 374.622C655.907 375.936 655.6 377.583 655.6 378.8H663.6C663.6 378.817 663.593 379.564 662.878 380.278C662.164 380.993 661.417 381 661.4 381V373ZM655.6 378.8V425.6H663.6V378.8H655.6ZM655.6 425.6C655.6 427.553 654.926 429.217 653.372 430.772L659.028 436.428C662.007 433.449 663.6 429.78 663.6 425.6H655.6ZM653.372 430.772C651.817 432.326 650.153 433 648.2 433V441C652.38 441 656.049 439.407 659.028 436.428L653.372 430.772ZM648.2 433H631V441H648.2V433ZM631 433C629.047 433 627.383 432.326 625.828 430.772L620.172 436.428C623.151 439.407 626.82 441 631 441V433ZM625.828 430.772C624.274 429.217 623.6 427.553 623.6 425.6H615.6C615.6 429.78 617.193 433.449 620.172 436.428L625.828 430.772ZM623.6 425.6V302.4H615.6V425.6H623.6ZM623.6 302.4C623.6 300.447 624.274 298.783 625.828 297.228L620.172 291.572C617.193 294.551 615.6 298.22 615.6 302.4H623.6ZM625.828 297.228C627.383 295.674 629.047 295 631 295V287C626.82 287 623.151 288.593 620.172 291.572L625.828 297.228ZM631 295H648.2V287H631V295ZM648.2 295C650.153 295 651.817 295.674 653.372 297.228L659.028 291.572C656.049 288.593 652.38 287 648.2 287V295ZM653.372 297.228C654.926 298.783 655.6 300.447 655.6 302.4H663.6C663.6 298.22 662.007 294.551 659.028 291.572L653.372 297.228ZM655.6 302.4V345.2H663.6V302.4H655.6ZM655.6 345.2C655.6 346.417 655.907 348.064 657.222 349.378C658.536 350.693 660.183 351 661.4 351V343C661.417 343 662.164 343.007 662.878 343.722C663.593 344.436 663.6 345.183 663.6 345.2H655.6ZM661.4 351H694V343H661.4V351ZM694 351C695.28 351 696.936 350.618 698.19 349.207C699.364 347.886 699.6 346.308 699.6 345.2H691.6C691.6 345.292 691.569 344.614 692.21 343.893C692.931 343.082 693.787 343 694 343V351ZM699.6 345.2V302.4H691.6V345.2H699.6ZM699.6 302.4C699.6 300.447 700.274 298.783 701.828 297.228L696.172 291.572C693.193 294.551 691.6 298.22 691.6 302.4H699.6ZM701.828 297.228C703.383 295.674 705.047 295 707 295V287C702.82 287 699.151 288.593 696.172 291.572L701.828 297.228ZM707 295H724.2V287H707V295ZM865.717 408.4L862.889 411.228L862.889 411.228L865.717 408.4ZM865.717 433.6L862.889 430.772L862.889 430.772L865.717 433.6ZM768.517 433.6L771.346 430.772L771.346 430.772L768.517 433.6ZM774.117 398.2L771.69 395.021L771.675 395.032L771.661 395.043L774.117 398.2ZM817.117 361L820.19 363.561L820.2 363.548L820.211 363.536L817.117 361ZM778.917 328.8L780.239 332.575L780.246 332.573L780.253 332.571L778.917 328.8ZM771.517 328L769.21 331.268L769.276 331.314L769.344 331.358L771.517 328ZM771.117 299.2L774.317 301.6L774.345 301.563L774.372 301.525L771.117 299.2ZM778.917 293.8L777.966 289.915L777.956 289.917L777.947 289.919L778.917 293.8ZM854.517 300.8L851.874 303.802L851.897 303.823L851.921 303.843L854.517 300.8ZM857.717 364.2L854.444 361.9L854.434 361.915L854.424 361.93L857.717 364.2ZM817.317 404.4L814.743 401.339L814.611 401.45L814.489 401.572L817.317 404.4ZM857.717 409C859.671 409 861.334 409.674 862.889 411.228L868.546 405.572C865.567 402.593 861.897 401 857.717 401V409ZM862.889 411.228C864.443 412.783 865.117 414.447 865.117 416.4H873.117C873.117 412.22 871.525 408.551 868.546 405.572L862.889 411.228ZM865.117 416.4V425.6H873.117V416.4H865.117ZM865.117 425.6C865.117 427.553 864.443 429.217 862.889 430.772L868.546 436.428C871.525 433.449 873.117 429.78 873.117 425.6H865.117ZM862.889 430.772C861.334 432.326 859.671 433 857.717 433V441C861.897 441 865.567 439.407 868.546 436.428L862.889 430.772ZM857.717 433H776.517V441H857.717V433ZM776.517 433C774.564 433 772.9 432.326 771.346 430.772L765.689 436.428C768.668 439.407 772.337 441 776.517 441V433ZM771.346 430.772C769.791 429.217 769.117 427.553 769.117 425.6H761.117C761.117 429.78 762.71 433.449 765.689 436.428L771.346 430.772ZM769.117 425.6V416.4H761.117V425.6H769.117ZM769.117 416.4C769.117 410.193 771.527 405.282 776.573 401.357L771.661 395.043C764.708 400.451 761.117 407.673 761.117 416.4H769.117ZM776.545 401.379C798.516 384.601 813.197 371.953 820.19 363.561L814.044 358.439C807.704 366.047 793.718 378.199 771.69 395.021L776.545 401.379ZM820.211 363.536C827.265 354.929 831.117 346.062 831.117 337H823.117C823.117 343.672 820.302 350.804 814.024 358.464L820.211 363.536ZM831.117 337C831.117 331.244 829.463 326.236 825.514 322.751C821.659 319.35 816.286 318 810.117 318V326C815.282 326 818.408 327.15 820.221 328.749C821.938 330.264 823.117 332.756 823.117 337H831.117ZM810.117 318C801.453 318 790.555 320.435 777.582 325.029L780.253 332.571C792.879 328.098 802.781 326 810.117 326V318ZM777.596 325.025C776.033 325.572 774.864 325.401 773.69 324.642L769.344 331.358C772.703 333.532 776.468 333.895 780.239 332.575L777.596 325.025ZM773.824 324.732C772.568 323.846 772.117 322.906 772.117 321.6H764.117C764.117 325.627 765.933 328.954 769.21 331.268L773.824 324.732ZM772.117 321.6V308.4H764.117V321.6H772.117ZM772.117 308.4C772.117 305.762 772.858 303.545 774.317 301.6L767.917 296.8C765.376 300.188 764.117 304.105 764.117 308.4H772.117ZM774.372 301.525C775.846 299.462 777.652 298.239 779.887 297.681L777.947 289.919C773.782 290.961 770.389 293.338 767.862 296.875L774.372 301.525ZM779.869 297.685C792.668 294.551 804.747 293 816.117 293V285C804.021 285 791.299 286.649 777.966 289.915L779.869 297.685ZM816.117 293C832.199 293 843.917 296.795 851.874 303.802L857.161 297.798C847.251 289.071 833.369 285 816.117 285V293ZM851.921 303.843C859.956 310.697 864.117 320.239 864.117 333H872.117C872.117 318.294 867.211 306.37 857.113 297.757L851.921 303.843ZM864.117 333C864.117 343.026 860.955 352.634 854.444 361.9L860.99 366.5C868.346 356.032 872.117 344.841 872.117 333H864.117ZM854.424 361.93C847.952 371.32 834.848 384.429 814.743 401.339L819.892 407.461C840.053 390.505 853.883 376.813 861.011 366.47L854.424 361.93ZM814.489 401.572C813.919 402.141 813.117 403.232 813.117 404.8H821.117C821.117 406.102 820.448 406.926 820.146 407.228L814.489 401.572ZM813.117 404.8C813.117 405.483 813.291 406.73 814.339 407.778C815.387 408.826 816.634 409 817.317 409V401C817.867 401 819.014 401.14 819.996 402.122C820.977 403.103 821.117 404.25 821.117 404.8H813.117ZM817.317 409H857.717V401H817.317V409ZM1009.35 294.4L1012.18 291.572L1012.18 291.572L1009.35 294.4ZM976.148 433.6L978.977 430.772L978.977 430.772L976.148 433.6ZM933.348 433.6L936.177 436.428L936.177 436.428L933.348 433.6ZM900.148 433.6L897.32 436.428L897.32 436.428L900.148 433.6ZM900.148 294.4L897.32 291.572L897.32 291.572L900.148 294.4ZM933.348 294.4L936.177 291.572L936.177 291.572L933.348 294.4ZM976.148 294.4L973.32 291.572L973.32 291.572L976.148 294.4ZM1001.35 295C1003.3 295 1004.97 295.674 1006.52 297.228L1012.18 291.572C1009.2 288.593 1005.53 287 1001.35 287V295ZM1006.52 297.228C1008.07 298.783 1008.75 300.447 1008.75 302.4H1016.75C1016.75 298.22 1015.16 294.551 1012.18 291.572L1006.52 297.228ZM1008.75 302.4V425.6H1016.75V302.4H1008.75ZM1008.75 425.6C1008.75 427.553 1008.07 429.217 1006.52 430.772L1012.18 436.428C1015.16 433.449 1016.75 429.78 1016.75 425.6H1008.75ZM1006.52 430.772C1004.97 432.326 1003.3 433 1001.35 433V441C1005.53 441 1009.2 439.407 1012.18 436.428L1006.52 430.772ZM1001.35 433H984.148V441H1001.35V433ZM984.148 433C982.195 433 980.531 432.326 978.977 430.772L973.32 436.428C976.299 439.407 979.969 441 984.148 441V433ZM978.977 430.772C977.422 429.217 976.748 427.553 976.748 425.6H968.748C968.748 429.78 970.341 433.449 973.32 436.428L978.977 430.772ZM976.748 425.6V378.8H968.748V425.6H976.748ZM976.748 378.8C976.748 377.692 976.512 376.114 975.338 374.793C974.084 373.382 972.428 373 971.148 373V381C970.935 381 970.08 380.918 969.359 380.107C968.718 379.386 968.748 378.708 968.748 378.8H976.748ZM971.148 373H938.548V381H971.148V373ZM938.548 373C937.332 373 935.685 373.307 934.37 374.622C933.055 375.936 932.748 377.583 932.748 378.8H940.748C940.748 378.817 940.742 379.564 940.027 380.278C939.312 380.993 938.565 381 938.548 381V373ZM932.748 378.8V425.6H940.748V378.8H932.748ZM932.748 425.6C932.748 427.553 932.074 429.217 930.52 430.772L936.177 436.428C939.156 433.449 940.748 429.78 940.748 425.6H932.748ZM930.52 430.772C928.966 432.326 927.302 433 925.348 433V441C929.528 441 933.198 439.407 936.177 436.428L930.52 430.772ZM925.348 433H908.148V441H925.348V433ZM908.148 433C906.195 433 904.531 432.326 902.977 430.772L897.32 436.428C900.299 439.407 903.969 441 908.148 441V433ZM902.977 430.772C901.422 429.217 900.748 427.553 900.748 425.6H892.748C892.748 429.78 894.341 433.449 897.32 436.428L902.977 430.772ZM900.748 425.6V302.4H892.748V425.6H900.748ZM900.748 302.4C900.748 300.447 901.422 298.783 902.977 297.228L897.32 291.572C894.341 294.551 892.748 298.22 892.748 302.4H900.748ZM902.977 297.228C904.531 295.674 906.195 295 908.148 295V287C903.969 287 900.299 288.593 897.32 291.572L902.977 297.228ZM908.148 295H925.348V287H908.148V295ZM925.348 295C927.302 295 928.966 295.674 930.52 297.228L936.177 291.572C933.198 288.593 929.528 287 925.348 287V295ZM930.52 297.228C932.074 298.783 932.748 300.447 932.748 302.4H940.748C940.748 298.22 939.156 294.551 936.177 291.572L930.52 297.228ZM932.748 302.4V345.2H940.748V302.4H932.748ZM932.748 345.2C932.748 346.417 933.055 348.064 934.37 349.378C935.685 350.693 937.332 351 938.548 351V343C938.565 343 939.312 343.007 940.027 343.722C940.742 344.436 940.748 345.183 940.748 345.2H932.748ZM938.548 351H971.148V343H938.548V351ZM971.148 351C972.428 351 974.084 350.618 975.338 349.207C976.512 347.886 976.748 346.308 976.748 345.2H968.748C968.748 345.292 968.718 344.614 969.359 343.893C970.08 343.082 970.935 343 971.148 343V351ZM976.748 345.2V302.4H968.748V345.2H976.748ZM976.748 302.4C976.748 300.447 977.422 298.783 978.977 297.228L973.32 291.572C970.341 294.551 968.748 298.22 968.748 302.4H976.748ZM978.977 297.228C980.531 295.674 982.195 295 984.148 295V287C979.969 287 976.299 288.593 973.32 291.572L978.977 297.228ZM984.148 295H1001.35V287H984.148V295ZM1138.87 336.4L1135.51 338.573L1135.58 338.689L1135.67 338.8L1138.87 336.4ZM1140.07 343.6L1143.83 344.948L1143.87 344.85L1143.9 344.749L1140.07 343.6ZM1094.67 470.4L1098.41 471.804L1098.42 471.777L1098.43 471.748L1094.67 470.4ZM1088.67 478L1086.45 474.672L1086.39 474.708L1086.34 474.745L1088.67 478ZM1055.67 477.6L1052.37 479.866L1052.38 479.887L1052.4 479.907L1055.67 477.6ZM1055.07 470.6L1058.75 472.152L1058.76 472.139L1058.76 472.125L1055.07 470.6ZM1068.27 438.6L1071.96 440.125L1072.08 439.854L1072.15 439.57L1068.27 438.6ZM1068.27 435.4L1072.15 434.43L1072.09 434.209L1072.01 433.996L1068.27 435.4ZM1033.87 343.6L1037.61 342.196L1037.58 342.121L1037.55 342.048L1033.87 343.6ZM1034.67 336.4L1037.93 338.707L1037.93 338.707L1034.67 336.4ZM1069.07 336.2L1066.49 339.26L1066.53 339.292L1066.57 339.323L1069.07 336.2ZM1074.07 344.2L1077.99 343.423L1077.99 343.404L1077.98 343.384L1074.07 344.2ZM1085.67 402.8H1089.67V402.408L1089.59 402.023L1085.67 402.8ZM1086.07 402.8L1082.19 401.811L1082.07 402.298V402.8H1086.07ZM1101.07 344L1104.94 344.989L1104.94 344.979L1104.95 344.97L1101.07 344ZM1106.27 336.2L1108.67 339.4L1108.72 339.363L1108.76 339.323L1106.27 336.2ZM1132.47 337C1133.97 337 1134.81 337.496 1135.51 338.573L1142.22 334.227C1139.99 330.771 1136.56 329 1132.47 329V337ZM1135.67 338.8C1136.47 339.866 1136.69 340.937 1136.23 342.451L1143.9 344.749C1145.04 340.929 1144.47 337.201 1142.07 334L1135.67 338.8ZM1136.3 342.252L1090.9 469.052L1098.43 471.748L1143.83 344.948L1136.3 342.252ZM1090.92 468.996C1090.01 471.423 1088.54 473.278 1086.45 474.672L1090.88 481.328C1094.39 478.989 1096.92 475.777 1098.41 471.804L1090.92 468.996ZM1086.34 474.745C1084.2 476.277 1081.94 477 1079.47 477V485C1083.66 485 1087.54 483.723 1090.99 481.255L1086.34 474.745ZM1079.47 477H1062.27V485H1079.47V477ZM1062.27 477C1060.75 477 1059.78 476.487 1058.93 475.293L1052.4 479.907C1054.76 483.247 1058.18 485 1062.27 485V477ZM1058.96 475.334C1058.32 474.405 1058.18 473.523 1058.75 472.152L1051.38 469.048C1049.82 472.744 1050.08 476.529 1052.37 479.866L1058.96 475.334ZM1058.76 472.125L1071.96 440.125L1064.57 437.075L1051.37 469.075L1058.76 472.125ZM1072.15 439.57C1072.36 438.729 1072.47 437.87 1072.47 437H1064.47C1064.47 437.196 1064.44 437.404 1064.39 437.63L1072.15 439.57ZM1072.47 437C1072.47 436.13 1072.36 435.271 1072.15 434.43L1064.39 436.37C1064.44 436.596 1064.47 436.804 1064.47 437H1072.47ZM1072.01 433.996L1037.61 342.196L1030.12 345.004L1064.52 436.804L1072.01 433.996ZM1037.55 342.048C1037.03 340.801 1037.12 339.858 1037.93 338.707L1031.4 334.093C1029.01 337.475 1028.57 341.332 1030.18 345.152L1037.55 342.048ZM1037.93 338.707C1038.78 337.513 1039.75 337 1041.27 337V329C1037.18 329 1033.76 330.753 1031.4 334.093L1037.93 338.707ZM1041.27 337H1060.47V329H1041.27V337ZM1060.47 337C1062.69 337 1064.65 337.71 1066.49 339.26L1071.64 333.14C1068.42 330.423 1064.64 329 1060.47 329V337ZM1066.57 339.323C1068.54 340.904 1069.68 342.77 1070.15 345.016L1077.98 343.384C1077.12 339.23 1074.92 335.763 1071.56 333.077L1066.57 339.323ZM1070.14 344.977L1081.74 403.577L1089.59 402.023L1077.99 343.423L1070.14 344.977ZM1081.67 402.8C1081.67 403.483 1081.84 404.73 1082.89 405.778C1083.94 406.826 1085.18 407 1085.87 407V399C1086.42 399 1087.56 399.14 1088.54 400.122C1089.53 401.103 1089.67 402.25 1089.67 402.8H1081.67ZM1085.87 407C1086.55 407 1087.8 406.826 1088.84 405.778C1089.89 404.73 1090.07 403.483 1090.07 402.8H1082.07C1082.07 402.25 1082.21 401.103 1083.19 400.122C1084.17 399.14 1085.32 399 1085.87 399V407ZM1089.94 403.789L1104.94 344.989L1097.19 343.011L1082.19 401.811L1089.94 403.789ZM1104.95 344.97C1105.52 342.672 1106.73 340.855 1108.67 339.4L1103.87 333C1100.47 335.545 1098.21 338.928 1097.19 343.03L1104.95 344.97ZM1108.76 339.323C1110.74 337.742 1112.86 337 1115.27 337V329C1111 329 1107.12 330.391 1103.77 333.077L1108.76 339.323ZM1115.27 337H1132.47V329H1115.27V337ZM1210.99 363.6L1208.29 366.544L1208.31 366.57L1208.34 366.596L1210.99 363.6ZM1186.79 404.6L1183.51 406.887L1183.53 406.911L1183.55 406.935L1186.79 404.6ZM1210.99 406.4L1208.34 403.404L1208.31 403.43L1208.29 403.456L1210.99 406.4ZM1249.79 290.4L1252.62 287.572L1252.62 287.572L1249.79 290.4ZM1249.79 433.6L1252.62 436.428L1252.62 436.428L1249.79 433.6ZM1220.99 433.8L1218.17 436.628L1218.21 436.671L1218.25 436.713L1220.99 433.8ZM1217.39 425.6H1213.39V425.683L1213.4 425.767L1217.39 425.6ZM1216.79 424L1213.97 421.172L1213.82 421.317L1213.69 421.476L1216.79 424ZM1156.39 424.8L1153.25 427.277L1153.26 427.291L1153.27 427.304L1156.39 424.8ZM1155.99 345L1159.14 347.465L1159.15 347.454L1159.16 347.443L1155.99 345ZM1214.59 342.8L1217.42 339.972L1217.33 339.882L1217.24 339.798L1214.59 342.8ZM1218.59 290.4L1215.77 287.572L1215.77 287.572L1218.59 290.4ZM1220.19 396V374H1212.19V396H1220.19ZM1220.19 374C1220.19 368.762 1217.78 364.266 1213.64 360.604L1208.34 366.596C1211.14 369.067 1212.19 371.505 1212.19 374H1220.19ZM1213.7 360.656C1209.63 356.91 1204.73 355 1199.19 355V363C1202.72 363 1205.69 364.157 1208.29 366.544L1213.7 360.656ZM1199.19 355C1192.33 355 1186.75 357.727 1183.1 363.311C1179.64 368.6 1178.19 376.025 1178.19 385H1186.19C1186.19 376.642 1187.58 371.067 1189.79 367.689C1191.81 364.607 1194.73 363 1199.19 363V355ZM1178.19 385C1178.19 394.024 1179.77 401.518 1183.51 406.887L1190.08 402.313C1187.68 398.882 1186.19 393.31 1186.19 385H1178.19ZM1183.55 406.935C1187.35 412.234 1192.69 415 1199.19 415V407C1195.3 407 1192.37 405.5 1190.04 402.265L1183.55 406.935ZM1199.19 415C1204.73 415 1209.63 413.09 1213.7 409.344L1208.29 403.456C1205.69 405.843 1202.72 407 1199.19 407V415ZM1213.64 409.396C1217.78 405.734 1220.19 401.238 1220.19 396H1212.19C1212.19 398.495 1211.14 400.933 1208.34 403.404L1213.64 409.396ZM1241.79 291C1243.75 291 1245.41 291.674 1246.97 293.228L1252.62 287.572C1249.64 284.593 1245.97 283 1241.79 283V291ZM1246.97 293.228C1248.52 294.783 1249.19 296.447 1249.19 298.4H1257.19C1257.19 294.22 1255.6 290.551 1252.62 287.572L1246.97 293.228ZM1249.19 298.4V425.6H1257.19V298.4H1249.19ZM1249.19 425.6C1249.19 427.553 1248.52 429.217 1246.97 430.772L1252.62 436.428C1255.6 433.449 1257.19 429.78 1257.19 425.6H1249.19ZM1246.97 430.772C1245.41 432.326 1243.75 433 1241.79 433V441C1245.97 441 1249.64 439.407 1252.62 436.428L1246.97 430.772ZM1241.79 433H1229.19V441H1241.79V433ZM1229.19 433C1226.98 433 1225.24 432.301 1223.74 430.887L1218.25 436.713C1221.28 439.566 1225.01 441 1229.19 441V433ZM1223.82 430.972C1222.26 429.414 1221.48 427.63 1221.39 425.433L1213.4 425.767C1213.57 429.97 1215.19 433.653 1218.17 436.628L1223.82 430.972ZM1221.39 425.6V424H1213.39V425.6H1221.39ZM1221.39 424C1221.39 423.317 1221.22 422.07 1220.17 421.022C1219.12 419.974 1217.88 419.8 1217.19 419.8V427.8C1216.64 427.8 1215.5 427.66 1214.52 426.678C1213.53 425.697 1213.39 424.55 1213.39 424H1221.39ZM1217.19 419.8C1215.63 419.8 1214.53 420.602 1213.97 421.172L1219.62 426.828C1219.32 427.131 1218.5 427.8 1217.19 427.8V419.8ZM1213.69 421.476C1206.32 430.539 1196.93 435 1185.19 435V443C1199.33 443 1211 437.461 1219.9 426.524L1213.69 421.476ZM1185.19 435C1174.87 435 1166.39 430.868 1159.51 422.296L1153.27 427.304C1161.59 437.666 1172.32 443 1185.19 443V435ZM1159.53 422.323C1152.81 413.803 1149.19 401.533 1149.19 385H1141.19C1141.19 402.6 1145.04 416.863 1153.25 427.277L1159.53 422.323ZM1149.19 385C1149.19 368.004 1152.71 355.688 1159.14 347.465L1152.84 342.535C1144.88 352.712 1141.19 367.063 1141.19 385H1149.19ZM1159.16 347.443C1165.57 339.137 1174.11 335 1185.19 335V327C1171.75 327 1160.82 332.196 1152.83 342.557L1159.16 347.443ZM1185.19 335C1194.77 335 1203.66 338.498 1211.95 345.802L1217.24 339.798C1207.66 331.368 1196.95 327 1185.19 327V335ZM1211.77 345.628C1212.33 346.198 1213.43 347 1214.99 347V339C1216.3 339 1217.12 339.669 1217.42 339.972L1211.77 345.628ZM1214.99 347C1215.68 347 1216.92 346.826 1217.97 345.778C1219.02 344.73 1219.19 343.483 1219.19 342.8H1211.19C1211.19 342.25 1211.33 341.103 1212.32 340.122C1213.3 339.14 1214.44 339 1214.99 339V347ZM1219.19 342.8V298.4H1211.19V342.8H1219.19ZM1219.19 298.4C1219.19 296.447 1219.87 294.783 1221.42 293.228L1215.77 287.572C1212.79 290.551 1211.19 294.22 1211.19 298.4H1219.19ZM1221.42 293.228C1222.98 291.674 1224.64 291 1226.59 291V283C1222.41 283 1218.74 284.593 1215.77 287.572L1221.42 293.228ZM1226.59 291H1241.79V283H1226.59V291ZM1351.92 333.4L1351.4 329.434L1351.4 329.434L1351.92 333.4ZM1359.92 336.2L1357.09 339.028L1357.09 339.028L1359.92 336.2ZM1360.12 357.6L1362.95 360.428L1362.99 360.386L1363.03 360.341L1360.12 357.6ZM1352.12 361.4L1351.62 357.431L1351.61 357.432L1351.6 357.433L1352.12 361.4ZM1327.52 373L1330.38 375.798L1330.39 375.783L1330.41 375.768L1327.52 373ZM1314.92 433.6L1317.75 436.428L1314.92 433.6ZM1282.72 433.6L1285.55 430.772L1285.55 430.772L1282.72 433.6ZM1282.72 336.4L1285.55 339.228L1285.55 339.228L1282.72 336.4ZM1313.92 336.4L1311.09 339.228L1311.09 339.228L1313.92 336.4ZM1317.92 352.8L1320.75 355.628L1320.94 355.436L1321.1 355.218L1317.92 352.8ZM1352.44 337.366C1354.22 337.134 1355.66 337.602 1357.09 339.028L1362.75 333.372C1359.64 330.264 1355.75 328.866 1351.4 329.434L1352.44 337.366ZM1357.09 339.028C1358.61 340.546 1359.32 342.263 1359.32 344.4H1367.32C1367.32 340.137 1365.76 336.387 1362.75 333.372L1357.09 339.028ZM1359.32 344.4V349.6H1367.32V344.4H1359.32ZM1359.32 349.6C1359.32 351.631 1358.65 353.321 1357.21 354.859L1363.03 360.341C1365.85 357.345 1367.32 353.702 1367.32 349.6H1359.32ZM1357.29 354.772C1355.83 356.231 1354 357.133 1351.62 357.431L1352.61 365.369C1356.63 364.867 1360.14 363.236 1362.95 360.428L1357.29 354.772ZM1351.6 357.433C1340.59 358.863 1331.5 363.067 1324.63 370.232L1330.41 375.768C1335.81 370.133 1343.11 366.603 1352.63 365.367L1351.6 357.433ZM1324.66 370.202C1317.77 377.244 1314.32 385.927 1314.32 396H1322.32C1322.32 387.94 1325 381.289 1330.38 375.798L1324.66 370.202ZM1314.32 396V425.6H1322.32V396H1314.32ZM1314.32 425.6C1314.32 427.553 1313.64 429.217 1312.09 430.772L1317.75 436.428C1320.73 433.449 1322.32 429.78 1322.32 425.6H1314.32ZM1312.09 430.772C1310.54 432.326 1308.87 433 1306.92 433V441C1311.1 441 1314.77 439.407 1317.75 436.428L1312.09 430.772ZM1306.92 433H1290.72V441H1306.92V433ZM1290.72 433C1288.77 433 1287.1 432.326 1285.55 430.772L1279.89 436.428C1282.87 439.407 1286.54 441 1290.72 441V433ZM1285.55 430.772C1283.99 429.217 1283.32 427.553 1283.32 425.6H1275.32C1275.32 429.78 1276.91 433.449 1279.89 436.428L1285.55 430.772ZM1283.32 425.6V344.4H1275.32V425.6H1283.32ZM1283.32 344.4C1283.32 342.447 1283.99 340.783 1285.55 339.228L1279.89 333.572C1276.91 336.551 1275.32 340.22 1275.32 344.4H1283.32ZM1285.55 339.228C1287.1 337.674 1288.77 337 1290.72 337V329C1286.54 329 1282.87 330.593 1279.89 333.572L1285.55 339.228ZM1290.72 337H1305.92V329H1290.72V337ZM1305.92 337C1307.87 337 1309.54 337.674 1311.09 339.228L1316.75 333.572C1313.77 330.593 1310.1 329 1305.92 329V337ZM1311.09 339.228C1312.64 340.783 1313.32 342.447 1313.32 344.4H1321.32C1321.32 340.22 1319.73 336.551 1316.75 333.572L1311.09 339.228ZM1313.32 344.4V352.8H1321.32V344.4H1313.32ZM1313.32 352.8C1313.32 353.483 1313.49 354.73 1314.54 355.778C1315.59 356.826 1316.84 357 1317.52 357V349C1318.07 349 1319.22 349.14 1320.2 350.122C1321.18 351.103 1321.32 352.25 1321.32 352.8H1313.32ZM1317.52 357C1319.09 357 1320.18 356.198 1320.75 355.628L1315.09 349.972C1315.39 349.669 1316.22 349 1317.52 349V357ZM1321.1 355.218C1328.83 345.037 1339.19 339.1 1352.44 337.366L1351.4 329.434C1336.12 331.434 1323.8 338.43 1314.73 350.382L1321.1 355.218ZM1415.49 406.8L1412.05 408.842L1412.06 408.866L1412.08 408.89L1415.49 406.8ZM1439.89 406.8L1443.3 408.89L1443.31 408.866L1443.33 408.842L1439.89 406.8ZM1439.89 363.4L1436.45 365.442L1436.46 365.466L1436.48 365.49L1439.89 363.4ZM1415.49 363.4L1418.9 365.49L1418.91 365.466L1418.93 365.442L1415.49 363.4ZM1387.89 345.4L1390.71 348.228L1390.72 348.219L1390.73 348.209L1387.89 345.4ZM1467.49 345.4L1464.64 348.209L1464.65 348.219L1464.66 348.228L1467.49 345.4ZM1467.49 424.8L1470.31 427.628L1470.32 427.619L1470.33 427.609L1467.49 424.8ZM1387.89 424.8L1385.04 427.609L1385.05 427.619L1385.06 427.628L1387.89 424.8ZM1412.08 408.89C1415.46 414.412 1420.95 417 1427.69 417V409C1423.22 409 1420.58 407.454 1418.9 404.71L1412.08 408.89ZM1427.69 417C1434.42 417 1439.91 414.412 1443.3 408.89L1436.48 404.71C1434.79 407.454 1432.15 409 1427.69 409V417ZM1443.33 408.842C1446.45 403.583 1447.69 395.367 1447.69 385H1439.69C1439.69 395.166 1438.39 401.483 1436.45 404.758L1443.33 408.842ZM1447.69 385C1447.69 374.653 1446.45 366.462 1443.3 361.31L1436.48 365.49C1438.38 368.604 1439.69 374.814 1439.69 385H1447.69ZM1443.33 361.358C1439.97 355.702 1434.48 353 1427.69 353V361C1432.09 361 1434.74 362.565 1436.45 365.442L1443.33 361.358ZM1427.69 353C1420.89 353 1415.4 355.702 1412.05 361.358L1418.93 365.442C1420.63 362.565 1423.28 361 1427.69 361V353ZM1412.08 361.31C1408.92 366.462 1407.69 374.653 1407.69 385H1415.69C1415.69 374.814 1416.99 368.604 1418.9 365.49L1412.08 361.31ZM1407.69 385C1407.69 395.367 1408.92 403.584 1412.05 408.842L1418.93 404.758C1416.98 401.483 1415.69 395.166 1415.69 385H1407.69ZM1390.73 348.209C1399.26 339.561 1411.39 335 1427.69 335V327C1409.85 327 1395.44 332.039 1385.04 342.591L1390.73 348.209ZM1427.69 335C1443.98 335 1456.11 339.561 1464.64 348.209L1470.33 342.591C1459.93 332.039 1445.52 327 1427.69 327V335ZM1464.66 348.228C1473.19 356.759 1477.69 368.832 1477.69 385H1485.69C1485.69 367.301 1480.72 352.974 1470.31 342.572L1464.66 348.228ZM1477.69 385C1477.69 401.165 1473.19 413.32 1464.64 421.991L1470.33 427.609C1480.72 417.08 1485.69 402.701 1485.69 385H1477.69ZM1464.66 421.972C1456.13 430.496 1444 435 1427.69 435V443C1445.51 443 1459.91 438.037 1470.31 427.628L1464.66 421.972ZM1427.69 435C1411.37 435 1399.24 430.496 1390.71 421.972L1385.06 427.628C1395.47 438.037 1409.86 443 1427.69 443V435ZM1390.73 421.991C1382.18 413.32 1377.69 401.165 1377.69 385H1369.69C1369.69 402.701 1374.66 417.08 1385.04 427.609L1390.73 421.991ZM1377.69 385C1377.69 368.832 1382.18 356.759 1390.71 348.228L1385.06 342.572C1374.65 352.974 1369.69 367.301 1369.69 385H1377.69Z" fill="black"/>
<defs>
<linearGradient id="paint0_linear" x1="1425" y1="277" x2="622" y2="446" gradientUnits="userSpaceOnUse">
<stop stop-color="#2E8BC0"/>
<stop offset="1" stop-color="#C4C4C4" stop-opacity="0"/>
</linearGradient>
</defs>
</svg>
