<svg width="593" height="573" viewBox="0 0 593 573" fill="none" xmlns="http://www.w3.org/2000/svg">
<path d="M99.022 89.5358C99.022 89.5358 180.132 55.3786 226.094 58.4436C272.057 61.5085 277.802 60.1567 310.922 71.6473C344.042 83.1379 388.315 116.596 388.315 116.596L352.829 178.757C352.829 178.757 335.255 164.248 306.867 157.465C278.478 150.683 255.835 162.535 255.835 162.535C255.835 162.535 228.122 130.114 193.312 109.837C158.503 89.5591 99.022 89.5358 99.022 89.5358Z" fill="#2E8BC0"/>
<path d="M150.392 41.5689C148.702 38.8653 174.824 27.1122 208.859 22.3053C237.708 18.2308 272.179 20.2452 292.335 23.9951C336.269 32.169 366.01 64.8881 366.01 64.8881C366.01 64.8881 395.75 99.0219 395.75 101.726C395.75 104.429 356.209 54.7493 284.223 36.4996C212.238 18.2498 152.082 44.2726 150.392 41.5689Z" fill="#808080"/>
<path d="M396.1 20.6782C396.1 20.6782 452.85 87.9467 463.603 132.738C474.357 177.53 477.357 182.613 476.244 217.652C475.132 252.691 456.367 304.915 456.367 304.915L386.461 289.538C386.461 289.538 395.082 268.442 393.108 239.322C391.134 210.201 373.08 192.111 373.08 192.111C373.08 192.111 395.784 156.005 404.782 116.738C413.781 77.4704 396.1 20.6782 396.1 20.6782Z" fill="#2E8BC0"/>
<path d="M457.182 55.4439C459.26 53.026 478.255 74.4665 492.974 105.528C505.45 131.857 513.786 165.365 516.205 185.724C521.478 230.1 499.093 268.231 499.093 268.231C499.093 268.231 475.357 306.783 472.776 307.587C470.195 308.392 505.855 255.857 501.853 181.702C497.851 107.547 455.104 57.8618 457.182 55.4439Z" fill="#808080"/>
<path d="M551.803 281.935C551.803 281.935 505.945 357.053 466.857 381.425C427.768 405.798 423.896 410.253 390.305 420.283C356.714 430.314 301.236 429.036 301.236 429.036L293.705 357.857C293.705 357.857 316.445 359.36 343.445 348.274C370.445 337.188 381.893 314.338 381.893 314.338C381.893 314.338 423.328 324.452 463.425 320.564C503.522 316.676 551.803 281.935 551.803 281.935Z" fill="#2E8BC0"/>
<path d="M538.149 350.879C541.1 352.085 526.771 376.888 501.962 400.678C480.933 420.843 451.783 439.353 433.236 448.089C392.808 467.131 349.553 457.961 349.553 457.961C349.553 457.961 305.472 447.642 303.892 445.448C302.312 443.254 363.431 460.46 432.51 433.202C501.59 405.944 535.198 349.672 538.149 350.879Z" fill="#808080"/>
<path d="M344.116 516.195C344.116 516.195 258.134 497.42 222.32 468.449C186.506 439.478 181.03 437.275 160.568 408.81C140.105 380.345 123.173 327.499 123.173 327.499L187.978 297.108C187.978 297.108 193.992 319.09 213.297 340.981C232.602 362.872 257.939 366.22 257.939 366.22C257.939 366.22 261.929 408.684 278.714 445.306C295.499 481.928 344.116 516.195 344.116 516.195Z" fill="#2E8BC0"/>
<path d="M274.498 525.835C274.322 529.018 246.198 523.586 215.603 507.92C189.671 494.64 162.647 473.145 148.327 458.473C117.113 426.493 111.637 382.618 111.637 382.618C111.637 382.618 106.975 337.586 108.532 335.375C110.089 333.165 113.812 396.55 162.159 452.92C210.505 509.289 274.673 522.651 274.498 525.835Z" fill="#808080"/>
<path d="M65.7356 389.758C65.7356 389.758 59.6774 301.958 77.4576 259.463C95.2378 216.968 95.8188 211.095 117.413 183.478C139.007 155.862 184.997 124.806 184.997 124.806L232.321 178.505C232.321 178.505 212.904 190.435 197.296 215.099C181.688 239.763 185.571 265.024 185.571 265.024C185.571 265.024 145.925 280.748 115.47 307.118C85.0145 333.488 65.7356 389.758 65.7356 389.758Z" fill="#2E8BC0"/>
<path d="M36.9833 325.625C33.8782 326.349 31.2152 297.828 37.6858 264.071C43.1705 235.456 56.2365 203.494 66.3099 185.638C88.2674 146.716 128.853 129.17 128.853 129.17C128.853 129.17 170.777 112.082 173.335 112.957C175.893 113.833 116.087 135.16 75.5149 197.36C34.9428 259.56 40.0884 324.902 36.9833 325.625Z" fill="#808080"/>
<path fill-rule="evenodd" clip-rule="evenodd" d="M289.631 349.449C336.106 349.449 373.782 311.773 373.782 265.298C373.782 218.822 336.106 181.146 289.631 181.146C243.155 181.146 205.479 218.822 205.479 265.298C205.479 311.773 243.155 349.449 289.631 349.449ZM289.631 323.089C321.548 323.089 347.422 297.215 347.422 265.298C347.422 233.381 321.548 207.507 289.631 207.507C257.714 207.507 231.84 233.381 231.84 265.298C231.84 297.215 257.714 323.089 289.631 323.089Z" fill="#808080"/>
</svg>
