<svg width="416" height="416" viewBox="0 0 416 416" fill="none" xmlns="http://www.w3.org/2000/svg">
<path d="M145 259C145 220.892 175.892 190 214 190V190C252.108 190 283 220.892 283 259V344H145V259Z" fill="#2E8BC0"/>
<circle cx="216" cy="123" r="54" fill="#2E8BC0"/>
<path fill-rule="evenodd" clip-rule="evenodd" d="M208 416C322.875 416 416 322.875 416 208C416 93.1248 322.875 0 208 0C93.1248 0 0 93.1248 0 208C0 322.875 93.1248 416 208 416ZM208 384.359C305.4 384.359 384.359 305.4 384.359 208C384.359 110.6 305.4 31.6409 208 31.6409C110.6 31.6409 31.6409 110.6 31.6409 208C31.6409 305.4 110.6 384.359 208 384.359Z" fill="#808080"/>
</svg>
